PathFileType	4	(X/Y/Z)	C:\Users\WrightLab\Desktop\Jo\P5V24.trc
DataRate	CameraRate	NumFrames	NumMarkers	Units	OrigDataRate	OrigDataStartFrame	OrigNumFrames
100.00	100.00	      17	19	mm	100.00	291	      1161
Frame#	Time	Headset_Front			Headset_Back			Headset_Left			Headset_Right			Left_Shoulder			Right_Shoulder			Sternum			C7			Left Elbow			Right Elbow			Left Wrist			Right Wrist			Left ASIS			Right ASIS			S2			Left Knee			Right Knee			Left Ankle			Right Ankle			
		X1	Y1	Z1	X2	Y2	Z2	X3	Y3	Z3	X4	Y4	Z4	X5	Y5	Z5	X6	Y6	Z6	X7	Y7	Z7	X8	Y8	Z8	X9	Y9	Z9	X10	Y10	Z10	X11	Y11	Z11	X12	Y12	Z12	X13	Y13	Z13	X14	Y14	Z14	X15	Y15	Z15	X16	Y16	Z16	X17	Y17	Z17	X18	Y18	Z18	X19	Y19	Z19	

291	2.900	-231.26349	1564.00708	-275.69788							-460.57407	1522.70825	-260.21121	-125.75662	1494.08374	-486.73483	-513.19086	1434.63257	-385.24768	-310.26465	1290.68237	-378.44296	-368.16287	1516.64868	-552.69446	-135.92628	1302.49121	-402.93497	-662.60889	1214.15955	-303.13989	-43.89328	1240.04968	-569.49481	-693.79120	1096.12390	-80.13203	-159.20520	916.05017	-410.40543	-446.78918	915.60468	-352.44687	-295.23282	969.69147	-646.10864	-139.00739	490.05240	-386.84784	-489.31351	518.64423	-294.04858	-228.68015	82.17835	-429.07465	-474.31931	198.21107	-587.09583	
292	2.910	-231.83400	1563.98279	-268.94897							-460.95224	1523.29297	-254.61317	-126.80554	1494.81165	-481.45230	-515.51782	1436.06958	-380.53250	-312.35779	1291.32959	-373.56744	-368.78107	1517.76904	-547.58893	-137.11339	1302.70422	-397.00897	-663.59509	1215.60583	-299.10010	-45.43269	1241.11853	-562.93896	-694.57758	1096.72461	-75.38209	-159.03082	916.78308	-406.08231	-447.26288	915.67023	-346.05902	-296.00107	971.22400	-641.13312	-136.75711	490.60599	-385.06702	-488.59250	524.05084	-283.97128	-228.74994	82.46272	-428.93582	-477.13300	193.36295	-569.68420	
293	2.920	-232.62299	1564.59143	-264.56808							-462.05756	1524.06665	-249.15585	-127.65343	1495.69751	-475.21811	-514.68445	1436.23877	-374.11490	-312.44278	1292.44421	-368.21994	-369.47049	1518.76733	-541.94818	-136.52441	1304.31934	-391.75793	-664.40961	1216.44189	-293.70883	-46.38979	1242.46777	-558.70032	-695.88342	1096.59119	-70.84035	-159.78677	917.61389	-401.68594	-449.35965	916.56946	-340.75943	-297.11838	972.72711	-636.51868	-134.28230	491.96927	-383.34384	-487.14120	529.27332	-275.15091	-228.72426	82.44979	-428.62659	-480.40646	186.93051	-552.36133	
294	2.930	-233.47093	1565.46289	-259.10406							-462.77930	1524.24951	-243.15556	-127.61115	1497.01685	-470.43967	-517.23218	1437.11108	-369.39874	-313.56747	1292.54785	-362.36011	-369.87573	1519.86401	-536.04431	-137.34808	1304.60181	-386.62073	-664.91010	1216.44177	-288.73660	-46.24961	1243.44763	-555.95038	-696.32452	1097.13696	-66.52753	-161.13960	918.03186	-397.88266	-450.70877	917.78339	-331.87100	-297.98868	974.03326	-632.39557	-132.41304	492.82724	-379.81750	-485.75250	533.43884	-267.10724	-229.00621	82.42426	-428.87137	-483.46722	179.82797	-533.26013	
295	2.940	-234.07440	1565.60449	-253.48372							-463.41028	1525.04260	-237.98795	-128.43211	1497.95166	-464.67468	-517.59277	1438.08704	-364.62332	-314.06213	1293.92090	-356.45828	-370.64655	1521.08740	-530.75012	-138.84123	1305.23584	-380.99481	-665.35498	1216.99329	-284.30298	-47.78675	1244.67908	-547.78223	-697.09290	1097.45239	-61.16780	-160.91216	919.30060	-394.04678	-451.65311	919.07947	-325.78528	-298.66971	975.16321	-627.45825	-130.69995	494.27161	-376.80234	-484.88083	537.21625	-260.25760	-229.06374	82.41877	-428.86328	-486.28708	172.54465	-514.95294	
296	2.950	-234.81981	1566.48291	-248.42165							-464.27347	1525.41272	-232.77844	-129.31653	1498.95068	-459.34769	-518.03931	1438.67773	-358.91199	-314.56082	1294.42957	-352.09589	-371.15332	1522.25452	-525.06195	-139.55742	1306.21582	-375.97269	-666.52240	1217.91431	-279.41342	-48.31893	1245.80652	-542.96216	-697.45667	1097.96326	-57.07562	-161.75214	920.13251	-390.38831	-453.30347	920.00488	-320.62839	-299.03967	976.49243	-622.97443	-131.43207	494.65594	-374.23090	-483.70782	539.59528	-253.79260	-229.51123	81.99352	-429.00888	-489.22092	165.79488	-495.88708	
297	2.960	-235.57191	1566.80212	-242.57391							-464.84821	1526.41113	-226.93275	-130.30170	1499.45288	-453.00375	-520.08905	1439.90381	-354.66336	-315.45920	1295.96875	-347.52359	-371.97470	1523.15222	-519.53345	-140.08617	1306.39978	-370.67316	-667.14337	1218.52075	-274.91721	-49.07599	1247.17188	-538.86871	-698.21826	1097.96191	-52.51270	-163.21098	920.58209	-386.95270	-454.78217	920.52692	-316.05283	-300.19122	977.63385	-618.32904	-130.85576	495.19382	-370.34448	-483.19083	542.18713	-248.95010	-229.47025	82.49294	-428.90860	-492.89206	158.55272	-475.43820	
298	2.970	-236.33040	1567.45935	-237.25342							-465.82767	1526.69189	-221.86400	-130.77307	1501.08899	-448.22256	-519.96875	1440.17212	-349.42154	-316.67334	1295.76147	-343.05432	-373.03088	1523.90100	-514.52972	-142.32048	1306.37695	-367.23148	-668.11389	1219.14282	-271.06366	-49.60509	1248.53430	-533.73218	-698.47479	1097.85095	-47.66723	-163.60097	921.34912	-382.84952	-455.99353	921.69958	-310.98529	-301.19104	979.68854	-614.58118	-130.83313	495.25858	-367.12418	-482.37033	542.86420	-244.95569	-229.68810	82.48354	-428.91644	-495.82651	151.49350	-455.68515	
299	2.980	-237.14525	1568.27979	-232.12991							-466.28604	1527.27588	-215.94762	-131.73738	1501.82715	-442.90536	-522.61017	1441.99158	-344.10004	-316.80658	1297.17773	-337.99399	-373.49118	1525.38171	-509.27121	-142.74883	1307.67114	-361.76642	-669.25769	1219.23792	-265.73206	-50.61065	1249.62122	-529.43475	-699.32990	1097.87549	-43.70591	-164.19611	922.24841	-379.41592	-457.15561	922.93500	-307.03119	-302.07257	980.60004	-610.31378	-132.10603	495.26141	-363.29236	-481.80731	544.06714	-241.67224	-229.88809	82.56571	-428.76205	-498.75552	144.09265	-435.42722	
300	2.990										-467.11951	1528.07568	-211.11444	-132.65564	1503.09412	-438.13016	-522.12939	1441.99756	-338.91010	-317.99878	1297.57202	-332.31354	-375.08688	1526.47705	-504.15414	-143.28740	1308.84167	-357.63324	-669.96564	1219.26794	-261.34061	-51.54827	1250.89026	-524.79077	-700.02307	1098.12866	-39.38387	-165.13873	922.56769	-375.88492	-457.68863	923.00616	-302.86563	-303.58362	982.48389	-606.59161	-133.20926	495.10199	-359.28061	-480.96573	543.90930	-239.23198	-229.90642	82.59122	-428.74063	-501.24796	137.54778	-413.72546	
301	3.000	-238.66965	1569.40894	-222.04352							-467.94595	1528.85413	-205.51576	-133.51201	1503.67017	-432.92322	-524.79901	1442.31055	-333.42365	-318.90820	1298.03711	-327.27646	-375.86038	1527.23914	-498.71579	-144.64987	1308.97510	-353.53931	-671.26978	1219.39246	-256.87747	-52.32932	1252.24902	-520.28113	-700.13818	1098.38599	-34.52879	-166.42410	923.81610	-372.22485	-459.04083	923.13306	-299.25113	-303.87003	983.17841	-602.45868	-134.57378	494.94052	-355.57516	-480.13422	542.59998	-237.22379	-230.03842	82.95608	-428.61908	-503.98965	130.99419	-392.06787	
302	3.010	-239.61562	1570.36243	-218.20377							-468.56735	1529.00232	-199.94998	-134.60016	1504.38013	-428.63388	-523.94623	1442.53613	-327.76038	-320.11115	1298.36951	-323.31335	-376.90616	1527.32532	-493.34436	-145.22693	1310.19897	-348.92068	-672.06879	1219.49890	-252.80182	-53.01820	1253.69922	-518.00183	-700.32697	1098.19836	-29.62746	-166.73508	924.07953	-368.94510	-460.42438	924.28070	-295.05545	-305.12503	984.38782	-599.10461	-135.83163	495.18283	-353.18256	-479.54266	541.46686	-236.24744	-230.18877	83.14398	-428.64310	-506.25351	124.60085	-370.67651	
303	3.020	-240.48096	1571.11902	-213.71762							-469.49179	1530.08740	-195.24451	-135.83278	1505.26428	-422.80933	-525.47168	1442.96301	-322.81784	-320.01398	1299.24255	-318.00723	-378.29330	1528.73816	-488.77875	-146.05302	1311.05225	-344.44733	-673.32336	1219.69360	-248.17867	-54.43069	1254.02454	-512.50055	-700.78778	1097.54565	-24.39135	-168.46318	924.39410	-365.81470	-460.81696	924.69519	-290.85480	-306.76111	984.98389	-594.42334	-137.35063	495.10922	-351.39401	-478.85233	540.18585	-236.49367	-230.20259	83.01666	-428.59485	-508.45038	119.93168	-351.40756	
304	3.030	-241.06262	1571.04468	-207.56584							-470.05569	1530.26550	-189.53175	-137.82144	1505.20178	-419.05896	-527.56140	1443.74060	-317.99844	-321.54028	1299.34570	-313.60696	-379.49619	1529.36633	-483.41550	-147.09283	1311.51807	-340.20786	-674.44196	1219.36841	-243.51892	-55.87431	1254.89819	-508.50726	-699.65088	1096.70789	-20.60811	-169.50311	924.56769	-361.73709	-461.68503	924.49384	-286.63739	-308.24957	986.14288	-590.77802	-138.69391	495.96671	-348.87869	-475.53101	536.49738	-236.65282	-230.26581	83.29438	-428.46201	-510.21585	115.60554	-331.53625	
305	3.040	-241.77702	1571.17273	-203.13783							-470.37585	1529.98682	-184.06340	-139.06563	1505.86719	-413.75125	-526.66675	1442.24121	-312.26389	-322.05197	1299.46570	-309.67645	-381.44525	1529.04822	-478.54782	-148.11131	1312.10217	-335.28387	-675.27124	1219.14685	-239.51190	-57.08009	1255.51025	-504.18338	-700.33771	1096.07971	-15.58583	-170.23083	925.02136	-358.46521	-461.50977	924.24841	-282.55591	-309.62393	987.19910	-587.60358	-139.88069	496.41022	-347.30847	-474.73874	534.47607	-237.35156	-230.58791	83.64285	-428.52451	-511.63547	112.22839	-313.82629	
306	3.050	-243.09631	1571.16577	-196.58502							-471.41592	1530.24219	-178.82637	-140.15518	1506.15186	-409.76077	-529.00946	1443.16919	-307.09122	-322.86981	1298.54114	-305.43161	-382.60519	1529.99329	-473.36908	-149.09114	1311.74658	-332.48062	-676.33734	1219.23169	-234.97726	-57.72001	1255.96777	-500.59671	-701.15576	1097.01404	-11.62605	-171.20187	924.84296	-355.12680	-462.22305	924.45789	-278.12552	-311.14639	987.85828	-583.98706	-141.47122	497.12048	-346.08868	-473.53168	531.17120	-238.71507	-230.47643	83.46219	-428.48749	-513.04651	109.52529	-296.02066	
307	3.060	-243.52257	1571.07483	-192.60457							-471.62943	1530.13562	-173.40805	-141.34108	1506.19275	-405.59549	-529.93060	1443.22144	-301.67288	-323.95148	1298.72986	-301.42941	-383.87326	1530.47424	-468.08301	-150.15070	1311.83716	-328.00211	-677.35822	1219.02246	-230.27855	-59.42483	1256.87268	-497.34720	-702.63715	1095.94470	-7.39901	-172.64081	925.09082	-352.41577	-462.74854	924.53546	-273.52698	-312.90414	988.40442	-579.69507	-143.21312	497.34442	-344.87250	-472.75116	527.38049	-240.04381	-230.57524	83.78609	-428.74881	-513.43085	107.39479	-280.70056	
